<svg xmlns="http://www.w3.org/2000/svg" xmlns:xlink="http://www.w3.org/1999/xlink" width="14" height="14" viewBox="0 0 14 14">
  <defs>
    <clipPath id="clip-path">
      <rect id="Rectangle_11" data-name="Rectangle 11" width="14" height="14" transform="translate(1375 504) rotate(-90)" fill="#4f4cf7" stroke="#707070" stroke-width="1"/>
    </clipPath>
  </defs>
  <g id="Mask_Group_37" data-name="Mask Group 37" transform="translate(504 -1375) rotate(90)" clip-path="url(#clip-path)">
    <g id="arrow-right" transform="translate(1375 490)">
      <path id="Path_58" data-name="Path 58" d="M7,0a7,7,0,1,0,7,7A7,7,0,0,0,7,0ZM7,13.3A6.3,6.3,0,1,1,13.3,7,6.3,6.3,0,0,1,7,13.3Zm0,0" fill="#4f4cf7"/>
      <path id="Path_59" data-name="Path 59" d="M6.18,4.287a.35.35,0,1,0-.461.527L8.218,7l-2.5,2.187a.35.35,0,1,0,.461.527l2.8-2.45a.35.35,0,0,0,0-.527Zm0,0" fill="#4f4cf7"/>
    </g>
  </g>
</svg>
