<svg xmlns="http://www.w3.org/2000/svg" width="82.341" height="82.424" viewBox="0 0 82.341 82.424">
  <g id="arrows" transform="translate(-0.2)">
    <g id="Group_174" data-name="Group 174" transform="translate(0.2 0)">
      <path id="Path_309" data-name="Path 309" d="M165.01,122.526l-12.036-6.972-11.953-6.889a4.771,4.771,0,0,0-3.652-.5,4.846,4.846,0,0,0-2.905,2.241,4.905,4.905,0,0,0-.5,1.162c-.083.249-.083.581-.166.913v28.554a4.9,4.9,0,0,0,1.411,3.4,4.7,4.7,0,0,0,3.4,1.411,8.177,8.177,0,0,0,2.739-.913l11.787-6.806h.083l.083-.083,12.2-7.055A4.782,4.782,0,0,0,167.749,128a3.112,3.112,0,0,0,.083-.913C167.832,124.352,165.01,122.526,165.01,122.526Zm-1.66,4.9L151.314,134.4a.29.29,0,0,0-.166.083l-11.787,6.806a1.585,1.585,0,0,1-.664.249,1.18,1.18,0,0,1-.5-.166.89.89,0,0,1-.166-.5v-28.3a.081.081,0,0,1,.083-.083.29.29,0,0,0,.083-.166c.083-.083.249-.166.332-.249h.415c.083.083.166.083.249.166l11.787,6.806a.257.257,0,0,0,.166.083h.083l12.036,6.972c.166.083.5.332.5.581A.953.953,0,0,1,163.35,127.423Z" transform="translate(-106.076 -85.589)" fill="#fff"/>
      <path id="Path_310" data-name="Path 310" d="M70.505,12.119a41.08,41.08,0,0,0-58.187-.083A41.449,41.449,0,0,0,.2,41.254,41.171,41.171,0,1,0,70.505,12.119ZM67.6,67.4a36.873,36.873,0,0,1-52.293,0,36.873,36.873,0,0,1,0-52.293A37.02,37.02,0,0,1,78.474,41.254,36.561,36.561,0,0,1,67.6,67.4Z" transform="translate(-0.2 0)" fill="#fff"/>
    </g>
  </g>
</svg>
