<svg xmlns="http://www.w3.org/2000/svg" xmlns:xlink="http://www.w3.org/1999/xlink" width="16" height="16" viewBox="0 0 16 16">
  <defs>
    <clipPath id="clip-path">
      <rect id="Rectangle_22" data-name="Rectangle 22" width="16" height="16" transform="translate(389 760)" fill="#fff" stroke="#707070" stroke-width="1"/>
    </clipPath>
  </defs>
  <g id="Mask_Group_8" data-name="Mask Group 8" transform="translate(-389 -760)" clip-path="url(#clip-path)">
    <g id="tag_1_" data-name="tag (1)" transform="translate(389 760)">
      <g id="Group_6" data-name="Group 6">
        <g id="Group_5" data-name="Group 5">
          <path id="Path_24" data-name="Path 24" d="M8.341,0,.547,7.808a1.878,1.878,0,0,0,0,2.649L5.532,15.45A1.863,1.863,0,0,0,6.858,16h0a1.863,1.863,0,0,0,1.325-.548L16,7.645V0Zm6.409,7.126L7.3,14.567a.621.621,0,0,1-.442.183h0a.621.621,0,0,1-.442-.183L1.432,9.575a.626.626,0,0,1,0-.883L8.859,1.25h5.89Z" fill="#fff"/>
        </g>
      </g>
      <g id="Group_8" data-name="Group 8">
        <g id="Group_7" data-name="Group 7">
          <circle id="Ellipse_1" data-name="Ellipse 1" cx="1" cy="1" r="1" transform="translate(10.749 3.25)" fill="#fff"/>
        </g>
      </g>
    </g>
  </g>
</svg>
