<svg xmlns="http://www.w3.org/2000/svg" xmlns:xlink="http://www.w3.org/1999/xlink" width="16" height="16" viewBox="0 0 16 16">
  <defs>
    <clipPath id="clip-path">
      <rect id="Rectangle_154" data-name="Rectangle 154" width="16" height="16" transform="translate(871 1351)" fill="#6464f6" stroke="#707070" stroke-width="1"/>
    </clipPath>
  </defs>
  <g id="Mask_Group_60" data-name="Mask Group 60" transform="translate(-871 -1351)" clip-path="url(#clip-path)">
    <g id="arrow-right" transform="translate(871 1351)">
      <path id="Path_121" data-name="Path 121" d="M8,0a8,8,0,1,0,8,8A8,8,0,0,0,8,0ZM8,15.2A7.2,7.2,0,1,1,15.2,8,7.2,7.2,0,0,1,8,15.2Zm0,0" fill="#6464f6"/>
      <path id="Path_122" data-name="Path 122" d="M7.063,4.9a.4.4,0,1,0-.527.6L9.393,8,6.537,10.5a.4.4,0,1,0,.527.6l3.2-2.8a.4.4,0,0,0,0-.6Zm0,0" fill="#6464f6"/>
    </g>
  </g>
</svg>
