<svg xmlns="http://www.w3.org/2000/svg" xmlns:xlink="http://www.w3.org/1999/xlink" width="15" height="15" viewBox="0 0 15 15">
  <defs>
    <clipPath id="clip-path">
      <rect id="Rectangle_501" data-name="Rectangle 501" width="15" height="15" transform="translate(607 348)" stroke="#000" stroke-width="1"/>
    </clipPath>
  </defs>
  <g id="Mask_Group_187" data-name="Mask Group 187" transform="translate(-607 -348)" opacity="0.5" clip-path="url(#clip-path)">
    <g id="multimedia-option_1_" data-name="multimedia-option (1)" transform="translate(607 351.07)">
      <g id="Group_146" data-name="Group 146">
        <path id="Path_286" data-name="Path 286" d="M14.76,4.834l-.491-.495a.822.822,0,0,0-1.161,0L7.5,9.944,1.892,4.333a.823.823,0,0,0-1.16,0L.24,4.825a.821.821,0,0,0,0,1.16L6.921,12.69a.839.839,0,0,0,.582.263h0a.838.838,0,0,0,.58-.263L14.76,6A.829.829,0,0,0,15,5.417.82.82,0,0,0,14.76,4.834Z" transform="translate(0 -4.093)"/>
      </g>
    </g>
  </g>
</svg>
