<svg xmlns="http://www.w3.org/2000/svg" xmlns:xlink="http://www.w3.org/1999/xlink" width="10" height="10" viewBox="0 0 10 10">
  <defs>
    <clipPath id="clip-path">
      <rect id="Rectangle_175" data-name="Rectangle 175" width="10" height="10" transform="translate(398 841)" fill="#fff" stroke="#707070" stroke-width="1"/>
    </clipPath>
  </defs>
  <g id="Mask_Group_63" data-name="Mask Group 63" transform="translate(851 -398) rotate(90)" clip-path="url(#clip-path)">
    <g id="right" transform="translate(400.5 841)">
      <g id="Group_52" data-name="Group 52" transform="translate(0)">
        <path id="Path_128" data-name="Path 128" d="M10.942,4.856,6.359.064A.208.208,0,0,0,6,.208v.833a.208.208,0,0,0,.057.143L9.672,5,6.057,8.815A.208.208,0,0,0,6,8.958v.833a.208.208,0,0,0,.359.144l4.583-4.792A.209.209,0,0,0,10.942,4.856Z" transform="translate(-6 0)"/>
      </g>
    </g>
  </g>
</svg>
